<svg width="73" height="70" viewBox="0 0 73 70" fill="none" xmlns="http://www.w3.org/2000/svg">
<path d="M19.4735 19.8421C28.7751 19.8421 36.3156 16.0719 36.3156 11.4211C36.3156 6.77023 28.7751 3 19.4735 3C10.1718 3 2.63135 6.77023 2.63135 11.4211C2.63135 16.0719 10.1718 19.8421 19.4735 19.8421Z" stroke="white" stroke-width="5" stroke-linecap="round" stroke-linejoin="round"/>
<path d="M2.63135 11.4211C2.63135 11.4211 2.63135 18.5598 2.63135 23.2106C2.63135 27.8614 10.1718 31.6317 19.4735 31.6317C28.775 31.6317 36.3156 27.8614 36.3156 23.2106C36.3156 20.4559 36.3156 11.4211 36.3156 11.4211" stroke="white" stroke-width="5" stroke-linecap="round" stroke-linejoin="round"/>
<path d="M2.63135 23.2105C2.63135 23.2105 2.63135 30.3492 2.63135 35C2.63135 39.6508 10.1718 43.421 19.4735 43.421C28.775 43.421 36.3156 39.6508 36.3156 35C36.3156 32.2453 36.3156 23.2105 36.3156 23.2105" stroke="white" stroke-width="5" stroke-linecap="round" stroke-linejoin="round"/>
<path d="M2.63135 35C2.63135 35 2.63135 42.1387 2.63135 46.7895C2.63135 51.4403 10.1718 55.2105 19.4735 55.2105C28.775 55.2105 36.3156 51.4403 36.3156 46.7895C36.3156 44.0348 36.3156 35 36.3156 35" stroke="white" stroke-width="5" stroke-linecap="round" stroke-linejoin="round"/>
<path d="M2.63135 46.7895C2.63135 46.7895 2.63135 53.9282 2.63135 58.579C2.63135 63.2297 10.1718 67 19.4735 67C28.775 67 36.3156 63.2297 36.3156 58.579C36.3156 55.8243 36.3156 46.7895 36.3156 46.7895" stroke="white" stroke-width="5" stroke-linecap="round" stroke-linejoin="round"/>
<path d="M53.158 43.4211C62.4597 43.4211 70.0001 39.6509 70.0001 35C70.0001 30.3492 62.4597 26.579 53.158 26.579C43.8564 26.579 36.3159 30.3492 36.3159 35C36.3159 39.6509 43.8564 43.4211 53.158 43.4211Z" stroke="white" stroke-width="5" stroke-linecap="round" stroke-linejoin="round"/>
<path d="M36.3159 35C36.3159 35 36.3159 42.1387 36.3159 46.7895C36.3159 51.4403 43.8565 55.2105 53.158 55.2105C62.4596 55.2105 70.0001 51.4403 70.0001 46.7895C70.0001 44.0348 70.0001 35 70.0001 35" stroke="white" stroke-width="5" stroke-linecap="round" stroke-linejoin="round"/>
<path d="M36.3159 46.7895C36.3159 46.7895 36.3159 53.9282 36.3159 58.579C36.3159 63.2297 43.8565 67 53.158 67C62.4596 67 70.0001 63.2297 70.0001 58.579C70.0001 55.8243 70.0001 46.7895 70.0001 46.7895" stroke="white" stroke-width="5" stroke-linecap="round" stroke-linejoin="round"/>
</svg>
