<svg width="79" height="64" viewBox="0 0 79 64" fill="none" xmlns="http://www.w3.org/2000/svg">
<path d="M35.5556 64L24.2667 53.8667C20 50.0148 16.3402 46.5778 13.2871 43.5556C10.2341 40.5333 7.71557 37.6889 5.73156 35.0222C3.74756 32.3556 2.29571 29.7778 1.37601 27.2889C0.456305 24.8 -0.00236123 22.1926 9.14025e-06 19.4667C9.14025e-06 13.8963 1.86668 9.25867 5.60001 5.55378C9.33334 1.84889 13.9852 -0.0023681 19.5556 2.27337e-06C22.637 2.27337e-06 25.5704 0.651854 28.3556 1.95556C31.1408 3.25926 33.5408 5.0963 35.5556 7.46667C37.5704 5.0963 39.9704 3.25926 42.7556 1.95556C45.5408 0.651854 48.4741 2.27337e-06 51.5556 2.27337e-06C56.3556 2.27337e-06 60.3852 1.34756 63.6445 4.04267C66.9037 6.73778 69.1259 10.131 70.3111 14.2222H62.7556C61.6889 11.8519 60.1185 10.0741 58.0445 8.88889C55.9704 7.70371 53.8074 7.11111 51.5556 7.11111C48.5333 7.11111 45.9259 7.92652 43.7333 9.55734C41.5408 11.1882 39.4963 13.3357 37.6 16H33.5111C31.6741 13.3333 29.5846 11.1846 27.2427 9.55378C24.9007 7.92296 22.3384 7.10874 19.5556 7.11111C16.1778 7.11111 13.2587 8.28208 10.7982 10.624C8.33779 12.9659 7.10875 15.9123 7.11112 19.4631C7.11112 21.4187 7.52594 23.4039 8.35557 25.4187C9.18519 27.4335 10.6667 29.76 12.8 32.3982C14.9333 35.0341 17.837 38.1156 21.5111 41.6427C25.1852 45.1698 29.8667 49.4222 35.5556 54.4C37.0963 53.037 38.9037 51.4667 40.9778 49.6889C43.0519 47.9111 44.7111 46.4296 45.9556 45.2444L46.7556 46.0444L48.4907 47.7796L50.2222 49.5111L51.0222 50.3111C49.7185 51.4963 48.0593 52.9636 46.0445 54.7129C44.0296 56.4622 42.2519 58.0172 40.7111 59.3778L35.5556 64ZM60.4445 49.7778V39.1111H49.7778V32H60.4445V21.3333H67.5556V32H78.2222V39.1111H67.5556V49.7778H60.4445Z" fill="white"/>
</svg>
