<svg width="66" height="64" viewBox="0 0 66 64" fill="none" xmlns="http://www.w3.org/2000/svg">
<path d="M46.8293 0C38.2127 0 31.2195 6.99317 31.2195 15.6098C31.2195 24.2263 38.2127 31.2195 46.8293 31.2195C55.4459 31.2195 62.439 24.2263 62.439 15.6098C62.439 6.99317 55.4459 0 46.8293 0ZM46.8293 24.9756C41.6468 24.9756 37.4634 20.7922 37.4634 15.6098C37.4634 10.4273 41.6468 6.2439 46.8293 6.2439C52.0117 6.2439 56.1951 10.4273 56.1951 15.6098C56.1951 20.7922 52.0117 24.9756 46.8293 24.9756ZM56.1951 43.7073H49.9512C49.9512 39.961 47.6098 36.5893 44.1132 35.278L24.882 28.0976H0V62.439H18.7317V57.9434L40.5854 64L65.561 56.1951V53.0732C65.561 47.8907 61.3776 43.7073 56.1951 43.7073ZM12.4878 56.1951H6.2439V34.3415H12.4878V56.1951ZM40.4917 57.4751L18.7317 51.5122V34.3415H23.758L41.9278 41.1161C42.9893 41.5219 43.7073 42.5522 43.7073 43.7073C43.7073 43.7073 37.4634 43.5512 36.5268 43.239L29.0966 40.7727L27.1298 46.7044L34.56 49.1707C36.1522 49.7015 37.8068 49.9512 39.4927 49.9512H56.1951C57.4127 49.9512 58.5054 50.7005 59.0049 51.7307L40.4917 57.4751Z" fill="white"/>
</svg>
