<svg width="65" height="65" viewBox="0 0 65 65" fill="none" xmlns="http://www.w3.org/2000/svg">
<path d="M24.2753 3.01217C24.654 3.47228 24.8859 4.03538 24.9413 4.62869C24.9966 5.22201 24.8727 5.81828 24.5856 6.34047C22.3429 10.4581 21.1717 15.0735 21.1798 19.7623C21.1798 35.3603 33.8956 47.9908 49.5673 47.9908C51.6116 47.9908 53.6016 47.7774 55.514 47.3701C56.1002 47.2431 56.7109 47.2917 57.2697 47.5097C57.8285 47.7277 58.3107 48.1055 58.6561 48.5959C59.0207 49.1058 59.2066 49.7219 59.1848 50.3484C59.1631 50.9748 58.9349 51.5766 58.5358 52.06C55.4934 55.7973 51.6552 58.8085 47.3012 60.8741C42.9472 62.9397 38.1871 64.0076 33.368 63.9999C15.4852 63.9999 1.00049 49.5928 1.00049 31.8419C1.00049 18.4822 9.20098 7.0232 20.8772 2.16652C21.4588 1.92071 22.1045 1.87025 22.7172 2.02274C23.33 2.17523 23.8767 2.52242 24.2753 3.01217ZM19.8453 7.01932C15.3556 9.4276 11.6023 13.0073 8.98426 17.378C6.36621 21.7487 4.98126 26.7471 4.9766 31.8419C4.9766 47.436 17.6963 60.0665 33.368 60.0665C37.1208 60.073 40.8377 59.3351 44.3035 57.8955C47.7693 56.456 50.9151 54.3433 53.5589 51.6798C52.2516 51.8427 50.9211 51.9242 49.5673 51.9242C31.6845 51.9242 17.2036 37.5171 17.2036 19.7662C17.2036 15.2392 18.1424 10.9295 19.8453 7.01932Z" fill="white" stroke="white" stroke-width="2"/>
<path d="M43.8418 12.2057C43.8975 12.0377 44.0046 11.8915 44.1481 11.7879C44.2915 11.6843 44.464 11.6285 44.6409 11.6285C44.8179 11.6285 44.9904 11.6843 45.1338 11.7879C45.2773 11.8915 45.3844 12.0377 45.4401 12.2057L46.9413 16.7133C47.6124 18.7227 49.1873 20.2976 51.1967 20.9687L55.7042 22.4699C55.8722 22.5255 56.0184 22.6327 56.122 22.7761C56.2256 22.9196 56.2814 23.092 56.2814 23.269C56.2814 23.446 56.2256 23.6184 56.122 23.7619C56.0184 23.9053 55.8722 24.0125 55.7042 24.0681L51.1967 25.5693C50.2057 25.8995 49.3052 26.456 48.5665 27.1946C47.8279 27.9332 47.2715 28.8337 46.9413 29.8247L45.4401 34.3323C45.3844 34.5003 45.2773 34.6465 45.1338 34.7501C44.9904 34.8537 44.8179 34.9095 44.6409 34.9095C44.464 34.9095 44.2915 34.8537 44.1481 34.7501C44.0046 34.6465 43.8975 34.5003 43.8418 34.3323L42.3406 29.8247C42.0104 28.8337 41.454 27.9332 40.7154 27.1946C39.9767 26.456 39.0762 25.8995 38.0852 25.5693L33.5777 24.0681C33.4097 24.0125 33.2635 23.9053 33.1599 23.7619C33.0563 23.6184 33.0005 23.446 33.0005 23.269C33.0005 23.092 33.0563 22.9196 33.1599 22.7761C33.2635 22.6327 33.4097 22.5255 33.5777 22.4699L38.0852 20.9687C39.0762 20.6385 39.9767 20.082 40.7154 19.3434C41.454 18.6048 42.0104 17.7043 42.3406 16.7133L43.8418 12.2057ZM55.7469 0.378226C55.7852 0.267773 55.857 0.171995 55.9522 0.10421C56.0475 0.0364247 56.1615 0 56.2784 0C56.3953 0 56.5093 0.0364247 56.6045 0.10421C56.6997 0.171995 56.7715 0.267773 56.8098 0.378226L57.8106 3.38068C58.2567 4.72286 59.308 5.7741 60.6501 6.2202L63.6526 7.22102C63.763 7.25932 63.8588 7.33107 63.9266 7.42632C63.9944 7.52156 64.0308 7.63556 64.0308 7.75246C64.0308 7.86937 63.9944 7.98336 63.9266 8.07861C63.8588 8.17385 63.763 8.24561 63.6526 8.28391L60.6501 9.28472C59.9887 9.50476 59.3877 9.87597 58.8948 10.3689C58.4019 10.8618 58.0307 11.4628 57.8106 12.1243L56.8098 15.1267C56.7715 15.2372 56.6997 15.3329 56.6045 15.4007C56.5093 15.4685 56.3953 15.5049 56.2784 15.5049C56.1615 15.5049 56.0475 15.4685 55.9522 15.4007C55.857 15.3329 55.7852 15.2372 55.7469 15.1267L54.7461 12.1243C54.5261 11.4628 54.1549 10.8618 53.6619 10.3689C53.169 9.87597 52.568 9.50476 51.9066 9.28472L48.9041 8.28391C48.7937 8.24561 48.6979 8.17385 48.6301 8.07861C48.5623 7.98336 48.5259 7.86937 48.5259 7.75246C48.5259 7.63556 48.5623 7.52156 48.6301 7.42632C48.6979 7.33107 48.7937 7.25932 48.9041 7.22102L51.9066 6.2202C53.2488 5.7741 54.3 4.72286 54.7461 3.38068L55.7469 0.382105V0.378226Z" fill="white"/>
</svg>
